/vscmnt/brussel_pixiu_data/_data_brussel/112/vsc11236/PredSimResults/SUBJ07mtu3D/worker6.mot
version=1
nRows=11
nColumns=50
inDegrees=yes
endheader
                time	         pelvis_tilt	         pelvis_list	     pelvis_rotation	           pelvis_tx	           pelvis_ty	           pelvis_tz	       hip_flexion_r	     hip_adduction_r	      hip_rotation_r	        knee_angle_r	       ankle_angle_r	         mtp_angle_r	       hip_flexion_l	     hip_adduction_l	      hip_rotation_l	        knee_angle_l	       ankle_angle_l	         mtp_angle_l	    lumbar_extension	      lumbar_bending	     lumbar_rotation	 ercspn_r/activation	 intobl_r/activation	 extobl_r/activation	    abd_r/activation	    add_r/activation	hamstrings_r/activation	bifemsh_r/activation	glut_max_r/activation	iliopsoas_r/activation	rect_fem_r/activation	  vasti_r/activation	gastroc_r/activation	 soleus_r/activation	tib_ant_r/activation	 ercspn_l/activation	 intobl_l/activation	 extobl_l/activation	    abd_l/activation	    add_l/activation	hamstrings_l/activation	bifemsh_l/activation	glut_max_l/activation	iliopsoas_l/activation	rect_fem_l/activation	  vasti_l/activation	gastroc_l/activation	 soleus_l/activation	tib_ant_l/activation	
          1.04523777	         -4.02541422	         -2.72543707	          6.42887937	          1.27519008	          0.85702483	         -0.00932151	         28.37128121	          0.93919971	         -2.63562073	         -7.65095409	          3.80621588	          0.26535419	        -12.57872569	         -2.55096088	         -0.07239930	        -11.40676959	          7.03147061	         28.66054149	         -7.70106670	          1.63952719	         -4.02894854	          0.08789179	          0.18764758	          0.02929315	          0.03653656	          0.12800018	          0.02890589	          0.01000003	          0.00999999	          0.06154755	          0.02620994	          0.05419879	          0.01264404	          0.00999999	          0.30765951	          0.05596486	          0.00999999	          0.00999999	          0.03193930	          0.01884408	          0.01092077	          0.12495935	          0.01900978	          0.28150328	          0.00999999	          0.00999999	          0.05321031	          0.26741572	          0.01643596	
          1.05569015	         -4.09197310	         -2.56833113	          6.20214086	          1.29019704	          0.85569345	         -0.00919289	         27.76486636	          1.20578376	         -1.88305435	         -7.95539897	          3.45119962	          0.26633102	        -12.64452176	         -2.39763345	         -0.72750724	        -13.04731505	          6.10041325	         30.25956447	         -7.48524035	          2.04692569	         -4.13677532	          0.07485208	          0.15980802	          0.02494719	          0.03111596	          0.15266506	          0.02461739	          0.01000000	          0.07634505	          0.05241630	          0.02232141	          0.05537342	          0.01076816	          0.01618948	          0.30322449	          0.09925646	          0.00999999	          0.00999999	          0.02720076	          0.03570017	          0.01161831	          0.10642027	          0.01618948	          0.26100293	          0.00999999	          0.00999999	          0.04531598	          0.24692799	          0.01399751	
          1.06614253	         -4.14365435	         -2.43390380	          5.93245234	          1.30547886	          0.85443040	         -0.00904775	         27.03142776	          1.40303064	         -1.06607174	         -8.38420282	          3.21120306	          0.25084068	        -12.59010931	         -2.27282253	         -1.43199659	        -14.95588152	          5.07475113	         31.76186293	         -7.24075811	          2.49573686	         -4.22564522	          0.06626952	          0.15499651	          0.02124600	          0.07938305	          0.13188549	          0.03524348	          0.01900979	          0.06501843	          0.04463977	          0.01900978	          0.04715817	          0.01174206	          0.01378759	          0.33808880	          0.10996440	          0.00999999	          0.00999999	          0.02316523	          0.03040366	          0.00999999	          0.09063166	          0.01378759	          0.22228030	          0.00999999	          0.00999999	          0.03859286	          0.21141863	          0.01192082	
          1.07659490	         -4.18337801	         -2.31256986	          5.61482197	          1.32083295	          0.85337315	         -0.00881763	         26.25698705	          1.58260204	         -0.36737137	         -8.74616786	          2.84889188	          0.24290102	        -12.34227175	         -2.17648997	         -2.18405355	        -17.22788902	          3.94286236	         33.05764307	         -6.99303126	          2.96424566	         -4.29272062	          0.06870411	          0.13200109	          0.01809393	          0.11959276	          0.12716939	          0.04032750	          0.01618949	          0.05537224	          0.03801697	          0.01618948	          0.06199034	          0.01000000	          0.01174205	          0.36359795	          0.12194397	          0.00999999	          0.00999999	          0.01972842	          0.02589295	          0.01548934	          0.07718547	          0.01174205	          0.18930260	          0.00999999	          0.00999999	          0.03286719	          0.18005237	          0.01015224	
          1.08704728	         -4.21256575	         -2.20662796	          5.25289405	          1.33607457	          0.85266554	         -0.00850231	         25.52917692	          1.76076343	          0.20078963	         -9.18586382	          2.50124258	          0.22726613	        -11.83719210	         -2.12156143	         -2.98377503	        -19.94068565	          2.70399167	         33.97445236	         -6.76325541	          3.45370580	         -4.33750537	          0.05895825	          0.11241729	          0.01540950	          0.15076176	          0.12781552	          0.04479094	          0.01378761	          0.04715717	          0.03237674	          0.01378759	          0.11454192	          0.00999999	          0.00999999	          0.38253712	          0.14421748	          0.00999999	          0.00999999	          0.01680149	          0.03982454	          0.01803635	          0.06573416	          0.00999999	          0.16121750	          0.00999999	          0.00999999	          0.02799098	          0.15333964	          0.00999999	
          1.09749966	         -4.23311941	         -2.11258673	          4.84891033	          1.35108146	          0.85247901	         -0.00811644	         24.83320742	          1.93515721	          0.64798724	         -9.68733984	          2.32509701	          0.20735669	        -11.02627255	         -2.11676575	         -3.83824472	        -23.14144968	          1.32795958	         34.31276933	         -6.56352588	          3.95752927	         -4.35963353	          0.05021116	          0.09573896	          0.01312333	          0.16969807	          0.12853452	          0.04682740	          0.01174207	          0.05266659	          0.02757330	          0.01174205	          0.16023713	          0.00999999	          0.00999999	          0.38609531	          0.16348518	          0.00999999	          0.00999999	          0.01430881	          0.06342510	          0.01536047	          0.05598179	          0.00999999	          0.13729913	          0.00999999	          0.00999999	          0.02383822	          0.13059004	          0.00999999	
          1.10795204	         -4.24700508	         -2.02071051	          4.40233727	          1.36577414	          0.85295475	         -0.00768189	         24.11984141	          2.09603916	          0.99364071	        -10.15844217	          2.36573006	          0.18939650	         -9.88679916	         -2.16556873	         -4.74389516	        -26.80665979	         -0.32879217	         34.02111456	         -6.40123050	          4.46344939	         -4.35710905	          0.04276179	          0.08153505	          0.01117634	          0.16858289	          0.11121558	          0.05176435	          0.01000001	          0.05077132	          0.02348250	          0.00999999	          0.18597185	          0.00999999	          0.00999999	          0.37345957	          0.16197924	          0.00999999	          0.00999999	          0.01218594	          0.08154198	          0.01618948	          0.04767628	          0.00999999	          0.11692930	          0.00999999	          0.00999999	          0.02030156	          0.11121558	          0.00999999	
          1.11840442	         -4.25537633	         -1.91709001	          3.91753460	          1.38010322	          0.85409971	         -0.00722351	         23.36351963	          2.23044332	          1.28947195	        -10.54296740	          2.59307535	          0.17990358	         -8.43129593	         -2.26755999	         -5.68393892	        -30.86613994	         -2.25368187	         32.86623727	         -6.28232111	          4.95503064	         -4.33004935	          0.03641761	          0.06943843	          0.00999999	          0.17376265	          0.09471554	          0.05244989	          0.01000001	          0.04323885	          0.01999862	          0.00999999	          0.18348662	          0.01000000	          0.01000000	          0.34584985	          0.16943626	          0.04313767	          0.00999999	          0.01037802	          0.06944434	          0.01378759	          0.04060299	          0.00999999	          0.09958157	          0.00999999	          0.00999999	          0.01728960	          0.09471554	          0.05423366	
          1.12885679	         -4.25810895	         -1.79776009	          3.41203376	          1.39403361	          0.85577083	         -0.00675145	         22.56663747	          2.33499827	          1.58643499	        -10.83470264	          2.95338683	          0.18900254	         -6.71106261	         -2.42761307	         -6.63224653	        -35.25013970	         -4.07493843	         30.36429831	         -6.21036461	          5.41721037	         -4.28161102	          0.03101466	          0.05913649	          0.00999999	          0.17455863	          0.08066346	          0.05067413	          0.01000001	          0.05177586	          0.01703160	          0.00999999	          0.18207021	          0.00999999	          0.00999999	          0.31581954	          0.19158232	          0.09083584	          0.01000000	          0.00999999	          0.05914151	          0.01174205	          0.03457909	          0.00999999	          0.08480756	          0.01000000	          0.00999999	          0.01472450	          0.08066346	          0.17592994	
          1.13930917	         -4.25440613	         -1.66240734	          2.89709868	          1.40757306	          0.85776895	         -0.00627459	         21.72217481	          2.40775318	          1.89730583	        -11.00717608	          3.34900050	          0.22680322	         -4.83584581	         -2.60689471	         -7.53065621	        -39.79261078	         -5.13663311	         26.73559394	         -6.18225883	          5.83546276	         -4.20652066	          0.02641330	          0.05036294	          0.00999999	          0.16073480	          0.06869615	          0.04993510	          0.01000001	          0.05571826	          0.01450478	          0.00999999	          0.17085981	          0.00999999	          0.00999999	          0.28638361	          0.20296865	          0.09334122	          0.02158293	          0.00999999	          0.05036723	          0.00999999	          0.02944892	          0.00999999	          0.07222543	          0.01000000	          0.00999999	          0.01253997	          0.06869615	          0.17806898	
          1.14976155	         -4.24350407	         -1.51245721	          2.37485248	          1.42077798	          0.85999321	         -0.00580702	         20.83331702	          2.44900919	          2.22446143	        -11.06697415	          3.73097361	          0.29473672	         -2.90780365	         -2.75453162	         -8.35626062	        -44.21807034	         -5.24497547	         23.41310336	         -6.18889285	          6.20580731	         -4.10315744	          0.02249460	          0.04289105	          0.00999999	          0.14762244	          0.05850433	          0.04909675	          0.01000001	          0.05438480	          0.01235284	          0.00999999	          0.15415617	          0.00999999	          0.00999999	          0.26148607	          0.20098772	          0.09111979	          0.01838088	          0.00999999	          0.04289470	          0.00999999	          0.04836237	          0.00999999	          0.06151001	          0.00999999	          0.00999999	          0.02535837	          0.05850433	          0.20713188	
